<svg width="33" height="32" viewBox="0 0 33 32" fill="none" xmlns="http://www.w3.org/2000/svg">
<mask id="mask0_142851_1611" style="mask-type:alpha" maskUnits="userSpaceOnUse" x="0" y="0" width="33" height="32">
<rect x="0.75" width="32" height="32" fill="#D9D9D9"/>
</mask>
<g mask="url(#mask0_142851_1611)">
<path d="M22.3166 17.3333H7.41665C7.03887 17.3333 6.7222 17.2055 6.46665 16.95C6.21109 16.6944 6.08331 16.3778 6.08331 16C6.08331 15.6222 6.21109 15.3055 6.46665 15.05C6.7222 14.7944 7.03887 14.6667 7.41665 14.6667H22.3166L15.7833 8.13333C15.5166 7.86666 15.3889 7.55555 15.4 7.19999C15.4111 6.84444 15.55 6.53333 15.8166 6.26666C16.0833 6.02222 16.3944 5.89444 16.75 5.88333C17.1055 5.87222 17.4166 5.99999 17.6833 6.26666L26.4833 15.0667C26.6166 15.2 26.7111 15.3444 26.7666 15.5C26.8222 15.6555 26.85 15.8222 26.85 16C26.85 16.1778 26.8222 16.3444 26.7666 16.5C26.7111 16.6555 26.6166 16.8 26.4833 16.9333L17.6833 25.7333C17.4389 25.9778 17.1333 26.1 16.7666 26.1C16.4 26.1 16.0833 25.9778 15.8166 25.7333C15.55 25.4667 15.4166 25.15 15.4166 24.7833C15.4166 24.4167 15.55 24.1 15.8166 23.8333L22.3166 17.3333Z" fill="#70E61C"/>
</g>
</svg>
