<svg width="33" height="32" viewBox="0 0 33 32" fill="none" xmlns="http://www.w3.org/2000/svg">
<mask id="mask0_142851_1470" style="mask-type:alpha" maskUnits="userSpaceOnUse" x="0" y="0" width="33" height="32">
<rect x="0.75" width="32" height="32" fill="#D9D9D9"/>
</mask>
<g mask="url(#mask0_142851_1470)">
<path d="M11.1834 17.3333L17.7167 23.8667C17.9834 24.1333 18.1111 24.4444 18.1 24.8C18.0889 25.1555 17.95 25.4667 17.6834 25.7333C17.4167 25.9778 17.1056 26.1055 16.75 26.1167C16.3945 26.1278 16.0834 26 15.8167 25.7333L7.01669 16.9333C6.88336 16.8 6.78891 16.6555 6.73336 16.5C6.6778 16.3444 6.65002 16.1778 6.65002 16C6.65002 15.8222 6.6778 15.6555 6.73336 15.5C6.78891 15.3444 6.88336 15.2 7.01669 15.0667L15.8167 6.26666C16.0611 6.02222 16.3667 5.89999 16.7334 5.89999C17.1 5.89999 17.4167 6.02222 17.6834 6.26666C17.95 6.53333 18.0834 6.84999 18.0834 7.21666C18.0834 7.58333 17.95 7.89999 17.6834 8.16666L11.1834 14.6667H26.0834C26.4611 14.6667 26.7778 14.7944 27.0334 15.05C27.2889 15.3055 27.4167 15.6222 27.4167 16C27.4167 16.3778 27.2889 16.6944 27.0334 16.95C26.7778 17.2055 26.4611 17.3333 26.0834 17.3333H11.1834Z" fill="#70E61C"/>
</g>
</svg>
